<?xml version="1.0" encoding="utf-8"?>
<!-- Generator: Adobe Illustrator 16.0.4, SVG Export Plug-In . SVG Version: 6.00 Build 0)  -->
<!DOCTYPE svg PUBLIC "-//W3C//DTD SVG 1.1//EN" "http://www.w3.org/Graphics/SVG/1.1/DTD/svg11.dtd">
<svg version="1.1" id="Layer_1" xmlns="http://www.w3.org/2000/svg" xmlns:xlink="http://www.w3.org/1999/xlink" x="0px" y="0px"
	 width="280.486px" height="273.596px" viewBox="-339.891 -241.643 280.486 273.596"
	 enable-background="new -339.891 -241.643 280.486 273.596" xml:space="preserve">
<g>
	<path fill-rule="evenodd" clip-rule="evenodd" fill="#181616" d="M-201.412-235.396c-72.22,0-130.782,60.97-130.782,136.184
		c0,60.172,37.472,111.217,89.436,129.229c6.535,1.26,8.938-2.956,8.938-6.556c0-3.245-0.123-13.975-0.178-25.352
		c-36.384,8.237-44.062-16.069-44.062-16.069c-5.946-15.742-14.521-19.926-14.521-19.926c-11.864-8.453,0.897-8.281,0.897-8.281
		c13.129,0.96,20.045,14.038,20.045,14.038c11.666,20.816,30.595,14.8,38.06,11.32c1.172-8.801,4.56-14.813,8.304-18.213
		c-29.051-3.44-59.586-15.121-59.586-67.304c0-14.866,5.11-27.016,13.477-36.554c-1.358-3.431-5.837-17.28,1.265-36.039
		c0,0,10.985-3.661,35.975,13.96c10.431-3.02,21.618-4.53,32.735-4.583c11.112,0.053,22.308,1.563,32.76,4.583
		c24.964-17.621,35.929-13.96,35.929-13.96c7.118,18.759,2.643,32.608,1.286,36.039c8.383,9.538,13.458,21.688,13.458,36.554
		c0,52.31-30.594,63.824-59.716,67.198c4.691,4.224,8.87,12.514,8.87,25.217c0,18.222-0.152,32.889-0.152,37.373
		c0,3.626,2.356,7.872,8.984,6.538C-108.06,11.97-70.634-39.062-70.634-99.212C-70.634-174.427-129.188-235.396-201.412-235.396z"/>
	<path fill="#181616" d="M-282.659-39.864c-0.288,0.678-1.311,0.881-2.242,0.414c-0.952-0.445-1.48-1.365-1.176-2.044
		c0.284-0.695,1.307-0.89,2.255-0.427C-282.874-41.476-282.333-40.542-282.659-39.864L-282.659-39.864z M-284.27-41.106"/>
	<path fill="#181616" d="M-277.363-33.71c-0.622,0.599-1.844,0.321-2.669-0.63c-0.858-0.951-1.015-2.22-0.385-2.832
		c0.643-0.599,1.827-0.317,2.683,0.63C-276.876-35.583-276.711-34.323-277.363-33.71L-277.363-33.71z M-278.611-35.107"/>
	<path fill="#181616" d="M-272.207-25.871c-0.799,0.582-2.111,0.04-2.923-1.171c-0.799-1.211-0.799-2.665,0.021-3.247
		c0.808-0.581,2.103-0.057,2.923,1.141C-271.386-27.914-271.386-26.46-272.207-25.871L-272.207-25.871z M-272.207-25.871"/>
	<path fill="#181616" d="M-265.143-18.29c-0.715,0.824-2.242,0.599-3.358-0.524c-1.146-1.097-1.464-2.656-0.745-3.479
		c0.728-0.823,2.263-0.59,3.389,0.524C-264.724-20.673-264.377-19.105-265.143-18.29L-265.143-18.29z M-265.143-18.29"/>
	<path fill="#181616" d="M-255.397-13.89c-0.317,1.066-1.786,1.55-3.266,1.097c-1.48-0.467-2.449-1.718-2.148-2.792
		c0.304-1.075,1.785-1.582,3.273-1.097C-256.057-16.215-255.088-14.978-255.397-13.89L-255.397-13.89z M-255.397-13.89"/>
	<path fill="#181616" d="M-244.691-13.075c0.033,1.124-1.223,2.053-2.775,2.075c-1.565,0.035-2.83-0.873-2.847-1.978
		c0-1.137,1.227-2.057,2.792-2.083C-245.969-15.092-244.691-14.189-244.691-13.075L-244.691-13.075z M-244.691-13.075"/>
	<path fill="#181616" d="M-234.734-14.841c0.186,1.097-0.893,2.22-2.437,2.52c-1.519,0.291-2.923-0.387-3.117-1.471
		c-0.19-1.124,0.909-2.251,2.427-2.542C-236.316-16.612-234.929-15.956-234.734-14.841L-234.734-14.841z M-234.734-14.841"/>
</g>
</svg>
